{
  "accessors": [
    {
      "bufferView": 2,
      "componentType": 5126,
      "count": 24474,
      "max": [
        1.6326500177383423,
        0.63839000463485718,
        1.877439022064209
      ],
      "min": [
        -1.6326500177383423,
        -1.1923890113830566,
        -1.4723140001296997
      ],
      "type": "VEC3"
    },
    {
      "bufferView": 2,
      "byteOffset": 293688,
      "componentType": 5126,
      "count": 24474,
      "max": [
        0.99984639883041382,
        0.99998635053634644,
        0.99996042251586914
      ],
      "min": [
        -0.99984639883041382,
        -0.9999852180480957,
        -0.99983400106430054
      ],
      "type": "VEC3"
    },
    {
      "bufferView": 1,
      "componentType": 5126,
      "count": 24474,
      "max": [
        0.97850298881530762,
        0.93643397092819214
      ],
      "min": [
        0.021654000505805016,
        0.062692001461982727
      ],
      "type": "VEC2"
    },
    {
      "bufferView": 0,
      "componentType": 5125,
      "count": 120870,
      "max": [
        24473
      ],
      "min": [
        0
      ],
      "type": "SCALAR"
    }
  ],
  "asset": {
    "extras": {
      "author": "453867682 (https://sketchfab.com/453867682)",
      "license": "CC-BY-4.0 (http://creativecommons.org/licenses/by/4.0/)",
      "source": "https://sketchfab.com/3d-models/big-chungus-improved-418d5e87cc5943ea891ba3d47d13a114",
      "title": "Big Chungus (IMPROVED)"
    },
    "generator": "Sketchfab-10.29.0",
    "version": "2.0"
  },
  "bufferViews": [
    {
      "buffer": 0,
      "byteLength": 483480,
      "byteOffset": 0,
      "name": "floatBufferViews",
      "target": 34963
    },
    {
      "buffer": 0,
      "byteLength": 195792,
      "byteOffset": 483480,
      "byteStride": 8,
      "name": "floatBufferViews",
      "target": 34962
    },
    {
      "buffer": 0,
      "byteLength": 587376,
      "byteOffset": 679272,
      "byteStride": 12,
      "name": "floatBufferViews",
      "target": 34962
    }
  ],
  "buffers": [
    {
      "byteLength": 1266648,
      "uri": "scene.bin"
    }
  ],
  "images": [
    {
      "uri": "textures/material_0_baseColor.png"
    }
  ],
  "materials": [
    {
      "doubleSided": true,
      "name": "material_0",
      "pbrMetallicRoughness": {
        "baseColorFactor": [
          1,
          1,
          1,
          1
        ],
        "baseColorTexture": {
          "index": 0,
          "texCoord": 0
        },
        "metallicFactor": 0,
        "roughnessFactor": 0.59999999999999998
      }
    }
  ],
  "meshes": [
    {
      "primitives": [
        {
          "attributes": {
            "NORMAL": 1,
            "POSITION": 0,
            "TEXCOORD_0": 2
          },
          "indices": 3,
          "material": 0,
          "mode": 4
        }
      ]
    }
  ],
  "nodes": [
    {
      "children": [
        1
      ],
      "name": "RootNode (gltf orientation matrix)",
      "rotation": [
        -0.70710678118654746,
        -0,
        -0,
        0.70710678118654757
      ]
    },
    {
      "children": [
        2
      ],
      "matrix": [
        3.5290471246128163,
        -6.0823590949713011e-16,
        -0.0025768217807212168,
        0,
        6.0788869292316189e-16,
        3.529047966003418,
        -4.7575410390388245e-16,
        0,
        0.0025768217807212168,
        4.753101113356632e-16,
        3.5290471246128163,
        0,
        -0.00014790338173042983,
        0,
        5.412823256278898e-08,
        1
      ],
      "name": "RootNode (model correction matrix)"
    },
    {
      "children": [
        3
      ],
      "name": "cungusFINAL.obj.cleaner.materialmerger.gles"
    },
    {
      "mesh": 0,
      "name": ""
    }
  ],
  "samplers": [
    {
      "magFilter": 9729,
      "minFilter": 9987,
      "wrapS": 10497,
      "wrapT": 10497
    }
  ],
  "scene": 0,
  "scenes": [
    {
      "name": "OSG_Scene",
      "nodes": [
        0
      ]
    }
  ],
  "textures": [
    {
      "sampler": 0,
      "source": 0
    }
  ]
}

